<mxfile host="app.diagrams.net" modified="2022-04-02T06:45:13.209Z" agent="5.0 (Windows NT 10.0; Win64; x64) AppleWebKit/537.36 (KHTML, like Gecko) Chrome/100.0.4896.60 Safari/537.36" etag="1az22deYGsAyU6h0Fdkt" version="17.4.0" type="github">
  <diagram id="C8t9HkvVUh3omnmCS-X_" name="Page-1">
    <mxGraphModel dx="1234" dy="750" grid="1" gridSize="10" guides="1" tooltips="1" connect="1" arrows="1" fold="1" page="1" pageScale="1" pageWidth="1100" pageHeight="850" math="0" shadow="0">
      <root>
        <mxCell id="0" />
        <mxCell id="1" parent="0" />
      </root>
    </mxGraphModel>
  </diagram>
</mxfile>
